<svg width="219" height="85" viewBox="0 0 219 85" fill="none" xmlns="http://www.w3.org/2000/svg">
<path fill-rule="evenodd" clip-rule="evenodd" d="M63.9486 68.7817V75.1144C63.9486 75.1144 50.263 76.8352 43.4905 75.992C36.718 75.1488 35.686 70.3362 35.6509 66.275C35.6157 62.2138 35.2873 52.6631 36.5832 49.5771C37.879 46.491 41.6317 44.3113 47.0439 43.9557C52.456 43.6 57.141 43.7606 60.2956 45.1602C63.4502 46.5599 65.7429 48.992 65.8426 53.2195C65.9423 57.4413 65.8778 63.7797 65.8778 63.7797L49.272 63.9404V57.6708H56.7774V53.839C56.7774 53.839 56.8419 51.5962 54.649 51.275C52.456 50.948 48.1052 50.8505 46.8797 51.6306C45.6483 52.4107 45.4196 53.8046 45.4196 56.1449C45.4196 58.4853 45.4841 65.6325 45.4841 65.6325C45.4841 65.6325 45.1206 68.621 47.6126 68.621C50.1047 68.621 63.9486 68.7817 63.9486 68.7817ZM91.1851 37.1985H101.018L100.954 75.8371L91.2907 75.9174L91.3083 73.709C91.3083 73.709 86.6584 76.0665 82.7063 76.3591C78.7543 76.6516 74.4386 76.0666 72.3747 73.2386C70.3165 70.4107 70.4807 65.7989 70.4807 64.0436C70.4807 62.2883 70.5452 52.1182 70.5452 52.1182C70.5452 52.1182 70.8091 44.7759 77.218 44.0589C83.6269 43.3419 87.28 43.9958 87.28 43.9958L87.3151 51.7281L82.8647 51.665C82.8647 51.665 80.4254 51.4528 80.3902 54.361C80.355 57.2692 80.3257 65.7472 80.3257 65.7472C80.3257 65.7472 80.0267 68.3113 83.5155 68.2482C87.0044 68.1851 91.0209 66.8199 91.0209 66.8199L91.1851 37.1985ZM106.495 44.013H116.393V76.0493H106.495V44.013ZM111.444 27.5732C114.212 27.5732 116.457 29.7702 116.457 32.4776C116.457 35.1851 114.212 37.382 111.444 37.382C108.676 37.382 106.43 35.1851 106.43 32.4776C106.43 29.7702 108.676 27.5732 111.444 27.5732ZM121.107 75.3323V68.4432L137.549 68.4088C137.549 68.4088 140.24 68.5407 140.504 67.2042C140.768 65.8734 140.938 64.9958 139.97 64.4451C139.009 63.8945 126.255 62.2023 124.027 60.8084C121.805 59.4088 121.435 57.1373 121.435 53.6612C121.435 50.1851 121.77 45.5732 126.449 44.4031C131.134 43.2329 148.203 44.3056 148.203 44.3056V51.2578L132.823 51.1947C132.823 51.1947 131.48 51.034 131.38 51.8428C131.28 52.6574 131.064 53.8562 132.142 54.2004C133.221 54.5388 144.949 56.7013 144.949 56.7013C144.949 56.7013 149.563 57.1545 149.962 61.9958C150.525 68.8218 149.434 72.4987 146.76 74.4145C142.169 77.6956 127.035 75.9633 121.107 75.3323ZM174.73 75.9174H184.493L184.428 54.1832C184.428 54.1832 185.062 47.2654 181.139 45.3438C177.222 43.4279 169.382 43.4566 164.199 43.8467C159.015 44.2367 157.291 44.3973 157.291 44.3973L157.227 50.8333H170.942C170.942 50.8333 174.659 50.4088 174.695 54.275C174.73 58.1411 174.695 68.0818 174.695 68.0818C174.695 68.0818 170.344 69.579 167.025 69.4126C163.706 69.252 163.671 68.0474 163.607 66.4585C163.542 64.8639 163.542 62.5924 164.005 61.9442C164.469 61.296 165.934 61.0321 167.893 61.101C169.851 61.1641 170.614 61.1985 170.614 61.1985V55.0551C170.614 55.0551 161.015 54.9576 158.194 55.6402C155.374 56.3228 154.178 58.4968 154.008 62.5924C153.844 66.688 154.008 70.9442 155.14 73.1813C155.509 73.9155 155.984 74.4776 156.588 74.9079C159.232 76.795 167.447 76.5771 170.42 75.4872C172.279 74.8046 174.736 73.795 174.736 73.795V75.9059L174.73 75.9174ZM3.272 83.7243V77.5178L17.8841 77.5809C17.8841 77.5809 20.6048 77.5465 20.6224 74.9021C20.64 72.252 20.6048 52.9557 20.6048 52.9557C20.6048 52.9557 15.9198 51.6249 13.1346 51.556C10.3435 51.4929 9.84511 52.6631 9.84511 54.4815V64.7147C9.84511 64.7147 9.90961 66.7281 12.2023 66.8256C14.495 66.9231 16.8873 66.8256 16.8873 66.8256V73.6172C16.8873 73.6172 6.5908 74.3973 3.43618 72.2176C0.281558 70.0493 0.117377 66.1144 0.0821953 62.7358C0.0470137 59.3572 -0.281349 52.5656 0.680284 48.9576C1.64192 45.3495 5.92822 43.3362 10.9416 43.5943C15.955 43.8524 20.6048 46.1296 20.6048 46.1296V44.0188H30.4029L30.4381 75.3036C30.4381 75.3036 31.5698 85.6344 19.4145 84.8887C7.19475 84.4987 3.272 83.7243 3.272 83.7243Z" fill="white"/>
<path fill-rule="evenodd" clip-rule="evenodd" d="M182.458 12.7863C182.458 8.51273 186.011 5.03651 190.38 5.03651H200.266V4.88163C200.266 2.18555 198.032 0 195.276 0H181.08C178.324 0 176.09 2.18555 176.09 4.88163V30.7238C176.09 33.4199 178.324 35.6055 181.08 35.6055H182.458V12.7863Z" fill="white"/>
<path fill-rule="evenodd" clip-rule="evenodd" d="M191.887 20.3288C191.887 16.1356 195.376 12.7225 199.662 12.7225H209.549C209.508 10.0608 207.303 7.90967 204.57 7.90967H190.374C187.618 7.90967 185.384 10.0952 185.384 12.7913V38.6335C185.384 41.3296 187.618 43.5151 190.374 43.5151H191.881L191.887 20.3288Z" fill="white"/>
<path fill-rule="evenodd" clip-rule="evenodd" d="M199.041 56.2137L217.388 45.2117C218.391 44.6095 219.001 43.5483 219.001 42.3953V20.3284C219.001 17.7127 216.831 15.5903 214.157 15.5903H199.668C196.995 15.5903 194.825 17.7127 194.825 20.3284V53.902C194.825 55.4909 196.156 56.6209 197.604 56.6209C198.091 56.6209 198.584 56.4947 199.047 56.2194L199.041 56.2137Z" fill="white"/>
</svg>
